<svg width="40" height="40" viewBox="0 0 40 40" fill="none" xmlns="http://www.w3.org/2000/svg">
<path fill-rule="evenodd" clip-rule="evenodd" d="M11.3494 0H28.59C32.5366 0 33.9678 0.411333 35.4103 1.184C36.8528 1.95733 37.9857 3.09133 38.7572 4.536C39.5287 5.98067 39.9394 7.414 39.9394 11.3667V28.6333C39.9394 32.586 39.5287 34.0187 38.7572 35.464C37.9857 36.9087 36.8528 38.0427 35.4103 38.816C33.9678 39.5887 32.5366 40 28.59 40H11.3494C7.40277 40 5.97161 39.5887 4.52913 38.816C3.08665 38.0427 1.95437 36.9087 1.18287 35.464C0.41071 34.0187 0 32.586 0 28.6333V11.3667C0 7.414 0.41071 5.98067 1.18287 4.536C1.95437 3.09133 3.08665 1.95733 4.52913 1.184C5.97161 0.411333 7.40277 0 11.3494 0Z" fill="url(#paint0_linear_1_8)"/>
<path opacity="0.9" fill-rule="evenodd" clip-rule="evenodd" d="M15.2225 10.6667V10.8833L15.0008 11.1047C13.9065 12.2247 13.0651 13.5493 12.476 15.0793C11.8476 16.7113 11.5334 18.3933 11.5334 20.1253C11.5334 21.8127 11.831 23.4413 12.4267 25.0127C13.0225 26.5833 13.8726 27.946 14.9769 29.1V29.3333H12.6644L12.4687 29.134C11.5021 28.1227 10.7446 26.856 10.1968 25.3373C9.61168 23.716 9.31946 21.9787 9.31946 20.1253C9.31946 18.2267 9.62566 16.442 10.2374 14.7713C10.8498 13.1007 11.7411 11.7327 12.9107 10.6667H15.2225ZM27.0293 10.6667L27.2456 10.87C28.3093 11.9047 29.1281 13.2053 29.7019 14.7713C30.3143 16.442 30.6205 18.2267 30.6205 20.1253C30.6205 21.9787 30.3276 23.716 29.7431 25.3373C29.158 26.958 28.3353 28.29 27.2749 29.3333H24.9631V29.1L25.1801 28.8667C26.1792 27.7633 26.9567 26.4787 27.5125 25.0127C28.1089 23.4413 28.4065 21.8127 28.4065 20.1253C28.4065 18.3933 28.0923 16.7113 27.4639 15.0793C26.8349 13.4473 25.9196 12.0487 24.7174 10.8833V10.6667H27.0293ZM17.5184 14.43V19.2087H22.4209V14.43H24.7174V26.0527H22.4209V21.1073H17.5184V26.0527H15.2225V14.43H17.5184Z" fill="white"/>
<defs>
<linearGradient id="paint0_linear_1_8" x1="-0.977817" y1="-1.51111" x2="39.94" y2="38.7852" gradientUnits="userSpaceOnUse">
<stop stop-color="#D140F8"/>
<stop offset="0.365081" stop-color="#788CE9"/>
<stop offset="0.683665" stop-color="#37C2DE"/>
<stop offset="1" stop-color="#1ECCAE"/>
</linearGradient>
</defs>
</svg>
